# xmcd CD database file
#
# Track frame offsets:
#	150
#	14995
#	39333
#	52435
#	65754
#	83940
#	104757
#	118371
#	133293
#	146419
#	167468
#	181645
#	194723
#
# Disc length: 2847 seconds
#
# Revision: 0
# Processed by: cddbd v1.5.2PL0 Copyright (c) Steve Scherf et al.
# Submitted via: CDex 1.51
#
DISCID=d00b1d0d
DTITLE=Miss Leslie - Between the Whiskey and the Wine
DYEAR=2008
DGENRE=Country
TTITLE0=I'm Done With Leaving
TTITLE1=Between the Whiskey and the Wine
TTITLE2=I Can Still Feel
TTITLE3=Hold Back the Tears
TTITLE4=I Can Get Over You
TTITLE5=To Get Throught this Day
TTITLE6=I'll Stand In Line
TTITLE7=In the Matter of Me and You
TTITLE8=You Left Me a Long Time Ago
TTITLE9=Pretty Girl
TTITLE10=I'll Walk Out
TTITLE11=Honky Tonk Hangover
TTITLE12=LOVE WILL FIND YOU
EXTD=YEAR: 2008
EXTT0=
EXTT1=
EXTT2=
EXTT3=
EXTT4=
EXTT5=
EXTT6=
EXTT7=
EXTT8=
EXTT9=
EXTT10=
EXTT11=
EXTT12=
PLAYORDER=
